name kv03_filtered_grf.mot
datacolumns 37
datarows 10
range 0.835000 0.839500
endheader
time	1_ground_force_vx	1_ground_force_vy	1_ground_force_vz	1_ground_force_px	1_ground_force_py	1_ground_force_pz	1_ground_torque_x	1_ground_torque_y	1_ground_torque_z	2_ground_force_vx	2_ground_force_vy	2_ground_force_vz	2_ground_force_px	2_ground_force_py	2_ground_force_pz	2_ground_torque_x	2_ground_torque_y	2_ground_torque_z	3_ground_force_vx	3_ground_force_vy	3_ground_force_vz	3_ground_force_px	3_ground_force_py	3_ground_force_pz	3_ground_torque_x	3_ground_torque_y	3_ground_torque_z	4_ground_force_vx	4_ground_force_vy	4_ground_force_vz	4_ground_force_px	4_ground_force_py	4_ground_force_pz	4_ground_torque_x	4_ground_torque_y	4_ground_torque_z
            0.835000	           -0.000000	            0.000000	            0.000000	            0.049608	            0.000000	            0.128025	            0.000000	            0.000000	           -0.000000	           -0.000000	            0.000000	            0.000000	           -0.237209	            0.000000	            0.366985	            0.000000	            0.000000	            0.000000	            0.015943	            0.624770	           -0.142392	            0.386244	            0.970157	            1.074479	            0.002027	            0.021695	           -0.006557	            0.396486	            1.854120	            0.335673	           -0.369019	            0.969115	            1.107991	            0.033823	            0.006891	            0.003611
            0.835500	           -0.000000	            0.000000	            0.000000	            0.049608	            0.000000	            0.128025	            0.000000	            0.000000	           -0.000000	           -0.000000	            0.000000	            0.000000	           -0.237209	            0.000000	            0.366985	            0.000000	            0.000000	            0.000000	            0.001490	            0.650141	           -0.148592	            0.386252	            0.970149	            1.074479	            0.002995	            0.021966	           -0.007452	            0.413366	            1.856677	            0.327251	           -0.369023	            0.969111	            1.107986	            0.034151	            0.006729	            0.003947
            0.836000	            0.000000	            0.000000	            0.000000	            0.049608	            0.000000	            0.128025	            0.000000	            0.000000	           -0.000000	           -0.000000	            0.000000	            0.000000	           -0.237209	            0.000000	            0.366985	            0.000000	            0.000000	            0.000000	           -0.013055	            0.675511	           -0.154931	            0.386260	            0.970142	            1.074478	            0.003950	            0.022201	           -0.008336	            0.430616	            1.857221	            0.317372	           -0.369028	            0.969106	            1.107980	            0.034411	            0.006529	            0.004273
            0.836500	            0.000000	            0.000000	            0.000000	            0.049608	            0.000000	            0.128025	            0.000000	            0.000000	           -0.000000	           -0.000000	            0.000000	            0.000000	           -0.237209	            0.000000	            0.366985	            0.000000	            0.000000	            0.000000	           -0.027654	            0.700829	           -0.161423	            0.386268	            0.970134	            1.074478	            0.004892	            0.022400	           -0.009207	            0.448207	            1.855764	            0.306052	           -0.369032	            0.969102	            1.107975	            0.034603	            0.006294	            0.004588
            0.837000	            0.000000	            0.000000	            0.000000	            0.049608	            0.000000	            0.128025	            0.000000	            0.000000	           -0.000000	           -0.000000	            0.000000	            0.000000	           -0.237209	            0.000000	            0.366985	            0.000000	            0.000000	            0.000000	           -0.042272	            0.726046	           -0.168082	            0.386276	            0.970127	            1.074477	            0.005817	            0.022561	           -0.010061	            0.466109	            1.852321	            0.293312	           -0.369036	            0.969097	            1.107969	            0.034727	            0.006024	            0.004891
            0.837500	            0.000000	            0.000000	            0.000000	            0.049608	            0.000000	            0.128025	            0.000000	            0.000000	           -0.000000	           -0.000000	            0.000000	            0.000000	           -0.237209	            0.000000	            0.366985	            0.000000	            0.000000	            0.000000	           -0.056872	            0.751110	           -0.174920	            0.386285	            0.970119	            1.074477	            0.006727	            0.022684	           -0.010898	            0.484292	            1.846911	            0.279177	           -0.369041	            0.969093	            1.107964	            0.034785	            0.005720	            0.005182
            0.838000	            0.000000	            0.000000	            0.000000	            0.049608	            0.000000	            0.128025	            0.000000	            0.000000	           -0.000000	           -0.000000	            0.000000	            0.000000	           -0.237209	            0.000000	            0.366985	            0.000000	            0.000000	            0.000000	           -0.071419	            0.775969	           -0.181952	            0.386294	            0.970113	            1.074478	            0.007618	            0.022768	           -0.011714	            0.502726	            1.839552	            0.263671	           -0.369046	            0.969092	            1.107959	            0.034776	            0.005385	            0.005459
            0.838500	            0.000000	            0.000000	            0.000000	            0.049608	            0.000000	            0.128025	            0.000000	           -0.000000	           -0.000000	           -0.000000	            0.000000	            0.000000	           -0.237209	            0.000000	            0.366985	            0.000000	            0.000000	            0.000000	           -0.085879	            0.800568	           -0.189191	            0.386303	            0.970107	            1.074479	            0.008490	            0.022812	           -0.012509	            0.521379	            1.830265	            0.246827	           -0.369052	            0.969092	            1.107954	            0.034703	            0.005019	            0.005722
            0.839000	            0.000000	            0.000000	            0.000000	            0.049608	            0.000000	            0.128025	            0.000000	           -0.000000	           -0.000000	           -0.000000	            0.000000	            0.000000	           -0.237209	            0.000000	            0.366985	            0.000000	            0.000000	            0.000000	           -0.100219	            0.824853	           -0.196649	            0.386312	            0.970102	            1.074480	            0.009342	            0.022816	           -0.013279	            0.540219	            1.819074	            0.228679	           -0.369058	            0.969091	            1.107949	            0.034564	            0.004625	            0.005970
            0.839500	            0.000000	            0.000000	            0.000000	            0.049608	            0.000000	            0.128025	            0.000000	           -0.000000	           -0.000000	           -0.000000	            0.000000	            0.000000	           -0.237209	            0.000000	            0.366985	            0.000000	            0.000000	            0.000000	           -0.114407	            0.848771	           -0.204338	            0.386322	            0.970096	            1.074481	            0.010172	            0.022779	           -0.014022	            0.559215	            1.806002	            0.209264	           -0.369063	            0.969090	            1.107944	            0.034362	            0.004205	            0.006203
